<?xml version="1.0" encoding="UTF-8"?>
<svg id="Layer_1" data-name="Layer 1" xmlns="http://www.w3.org/2000/svg" viewBox="0 0 2305.5 562.3">
  <g>
    <polygon points="1011.2 440.4 1090.2 440.4 1169.1 104.2 1090.1 104.2 1011.2 440.4"/>
    <path d="M935.2.2l-135.7,562h1370.3L2305.5.2H935.2ZM1115.3,480l9.3,33.8-57.3,20.8-11.2-45.5h-48.5c-44.6,0-62.2-18.2-53.5-55.2l75.9-323.2c8.7-37.1,34.9-55.3,79.5-55.3h63.4c44.6,0,62.2,18.2,53.5,55.2l-75.9,323.2c-4.9,20.8-16.4,36.4-35.1,46.2ZM1266.5,489.1c-44.6,0-62.2-18.2-53.5-55.2l88.8-378.4h58.7s-90.4,384.9-90.4,384.9h79s90.4-385,90.4-385h58.7s-101.8,433.7-101.8,433.7h-129.8ZM1653.2,290.6h-89.2s-35.1,149.6-35.1,149.6h89.2s-11.4,48.7-11.4,48.7h-147.8c0,0,101.8-433.7,101.8-433.7h147c0,0-11.4,48.7-11.4,48.7h-88.4s-32.4,137.9-32.4,137.9h89.2s-11.4,48.7-11.4,48.7ZM1727.9,488.9c-44.6,0-62.2-18.2-53.5-55.2l88.8-378.4h58.7s-90.4,384.9-90.4,384.9h79s90.4-385,90.4-385h58.7s-101.8,433.7-101.8,433.7h-129.8ZM2157.7,103.8h-88.4s-32.4,137.9-32.4,137.9h89.2s-11.4,48.7-11.4,48.7h-89.2s-35.1,149.6-35.1,149.6h89.2s-11.4,48.7-11.4,48.7h-147.8c0,0,101.8-433.7,101.8-433.7h147c0,0-11.4,48.7-11.4,48.7Z"/>
  </g>
  <g>
    <path d="M135.8,0l120.6,2.8L118.4,562.1H0S135.8,0,135.8,0Z"/>
    <path d="M696.2,562.3h-115l-115.9-270.8c-13.9-34.1-31.1-82.6-39.4-104.8l-5.7,2.6c.3,12.8-9.3,56.2-20.2,101.3l-64.8,271.7h-116.7L354.3.2h107.3l121.2,284.4c18.5,43.4,32.9,89.4,38.1,106.5l5.7-2.6c1.1-15.3,8.9-57.9,20.2-104.8L714.5.2h117.5l-135.8,562.1Z"/>
  </g>
</svg>