<?xml version="1.0" encoding="UTF-8" standalone="no"?>
<!DOCTYPE svg PUBLIC "-//W3C//DTD SVG 1.1//EN" "http://www.w3.org/Graphics/SVG/1.1/DTD/svg11.dtd">
<svg width="100%" height="100%" viewBox="0 0 2306 563" version="1.1" xmlns="http://www.w3.org/2000/svg" xmlns:xlink="http://www.w3.org/1999/xlink" xml:space="preserve" xmlns:serif="http://www.serif.com/" style="fill-rule:evenodd;clip-rule:evenodd;stroke-linejoin:round;stroke-miterlimit:2;">
    <g>
        <path d="M1011.2,440.4L1090.2,440.4L1169.1,104.2L1090.1,104.2L1011.2,440.4Z" style="fill:white;fill-rule:nonzero;"/>
        <path d="M935.2,0.2L799.5,562.2L2169.8,562.2L2305.5,0.2L935.2,0.2ZM1115.3,480L1124.6,513.8L1067.3,534.6L1056.1,489.1L1007.6,489.1C963,489.1 945.4,470.9 954.1,433.9L1030,110.7C1038.7,73.6 1064.9,55.4 1109.5,55.4L1172.9,55.4C1217.5,55.4 1235.1,73.6 1226.4,110.6L1150.5,433.8C1145.6,454.6 1134.1,470.2 1115.4,480L1115.3,480ZM1266.5,489.1C1221.9,489.1 1204.3,470.9 1213,433.9L1301.8,55.5L1360.5,55.5L1270.1,440.4L1349.1,440.4L1439.5,55.4L1498.2,55.4L1396.4,489.1L1266.5,489.1ZM1653.2,290.6L1564,290.6L1528.9,440.2L1618.1,440.2L1606.7,488.9L1458.9,488.9L1560.7,55.2L1707.7,55.2L1696.3,103.9L1607.9,103.9L1575.5,241.8L1664.7,241.8L1653.3,290.5L1653.2,290.6ZM1727.9,488.9C1683.3,488.9 1665.7,470.7 1674.4,433.7L1763.2,55.3L1821.9,55.3L1731.5,440.2L1810.5,440.2L1900.9,55.2L1959.6,55.2L1857.8,488.9L1727.9,488.9ZM2157.7,103.8L2069.3,103.8L2036.9,241.7L2126.1,241.7L2114.7,290.4L2025.5,290.4L1990.4,440L2079.6,440L2068.2,488.7L1920.4,488.7L2022.2,55L2169.2,55L2157.8,103.7L2157.7,103.8Z" style="fill:white;fill-rule:nonzero;"/>
    </g>
    <g>
        <path d="M135.8,0L256.4,2.8L118.4,562.1L0,562.1L135.8,0Z" style="fill:white;fill-rule:nonzero;"/>
        <path d="M696.2,562.3L581.2,562.3L465.3,291.5C451.4,257.4 434.2,208.9 425.9,186.7L420.2,189.3C420.5,202.1 410.9,245.5 400,290.6L335.2,562.3L218.5,562.3L354.3,0.2L461.6,0.2L582.8,284.6C601.3,328 615.7,374 620.9,391.1L626.6,388.5C627.7,373.2 635.5,330.6 646.8,283.7L714.5,0.2L832,0.2L696.2,562.3Z" style="fill:white;fill-rule:nonzero;"/>
    </g>
</svg>
