<?xml version="1.0" encoding="UTF-8"?>
<svg id="Layer_1" data-name="Layer 1" xmlns="http://www.w3.org/2000/svg" viewBox="0 0 1592.6 715.7">
  <polygon points="554.2 555.4 356.4 357.6 554.2 159.8 554.2 5.7 202.3 357.6 554.2 709.5 554.2 555.4"/>
  <polygon points="229.8 457.9 131.8 360 229.8 262.1 229.8 130.2 0 360 229.8 589.8 229.8 457.9"/>
  <polygon points="1038.4 555.4 1236.2 357.6 1038.4 159.8 1038.4 5.7 1390.3 357.6 1038.4 709.5 1038.4 555.4"/>
  <polygon points="1362.9 457.9 1460.8 360 1362.9 262.1 1362.9 130.2 1592.6 360 1362.9 589.8 1362.9 457.9"/>
  <path d="M793.9,715.7l357.9-357.9L793.9,0h0s0,0,0,0h0s0,0,0,0l-357.9,357.9,357.9,357.9h0s0,0,0,0h0s0,0,0,0ZM793.9,156.7l201.1,201.1-201.1,201.1-201.1-201.1,201.1-201.1Z"/>
  <polyline points="796.7 212.5 937.8 353.7 796.7 494.8"/>
</svg>